# xmcd
#
# Track frame offsets:
#	150
#	11535
#	24502
#	40677
#	56150
#	73132
#	89225
#	103437
#	121572
#	135547
#	150275
#	167922
#	184372
#
# Disc length: 2567 seconds
#
# Revision: 0
# Processed by: cddbd v1.5PL3 Copyright (c) Steve Scherf et al.
# Submitted via: dBpowerAMP V4.0
#
DISCID=b00a050d
DTITLE=Peyton Place - Peyton Place
DYEAR=1994
DGENRE=Country
TTITLE0=Speeding
TTITLE1=That old lonesome feeling
TTITLE2=Song for the roses
TTITLE3=Blue sky
TTITLE4=Fool for love
TTITLE5=Fragile cargo
TTITLE6=Space
TTITLE7=No one saw the light
TTITLE8=Liar's heart
TTITLE9=Tell me I'm your choice
TTITLE10=I gazed into brown eyes
TTITLE11=She floated away
TTITLE12=Bridges of gold
EXTD=
EXTT0=
EXTT1=
EXTT2=
EXTT3=
EXTT4=
EXTT5=
EXTT6=
EXTT7=
EXTT8=
EXTT9=
EXTT10=
EXTT11=
EXTT12=
PLAYORDER=
